<svg xmlns="http://www.w3.org/2000/svg" viewBox="0 0 354 387.16"><defs><style>.cls-1{fill:#495057;}</style></defs><title>Recurso 2imagen-video</title><g id="Capa_2" data-name="Capa 2"><g id="Layer_1" data-name="Layer 1"><path class="cls-1" d="M116.31,223.3a30.86,30.86,0,0,0-7.94-6.21L52.84,187.27a4.5,4.5,0,0,0-6.63,4v23.42a4.51,4.51,0,0,0,2.45,4l59.71,30.48c4.85,2.49,8.86,3.08,12,1.8s4.73-4.18,4.73-8.71a24,24,0,0,0-2.82-10.54A37.48,37.48,0,0,0,116.31,223.3Z"/><path class="cls-1" d="M0,110.6V293.1a4.79,4.79,0,0,0,2.43,4.16l158.79,89.28a4.78,4.78,0,0,0,7.12-4.16V199.89a4.78,4.78,0,0,0-2.44-4.17L7.11,106.44A4.77,4.77,0,0,0,0,110.6ZM141.65,264.45a16.55,16.55,0,0,1-7.48,7.09,21.73,21.73,0,0,1-11.31,1.63,40.72,40.72,0,0,1-14.38-4.47L53.1,241.24a4.77,4.77,0,0,0-6.89,4.27v36.22q0,4.32-3.17,5.79c-2.12,1-4.74.77-7.88-.68a20.37,20.37,0,0,1-7.88-6.6,15,15,0,0,1-3.34-8.92V161.22q0-4,3.45-5.31,3.24-1.18,7.79,1.32l73.31,40.42a69.31,69.31,0,0,1,17,13.47,78.33,78.33,0,0,1,12.88,18.38q6,12.09,6,22.85A24.31,24.31,0,0,1,141.65,264.45Z"/><path class="cls-1" d="M185.66,201.26V379.88a6.46,6.46,0,0,0,9.63,5.63L350.7,298.13a6.45,6.45,0,0,0,3.3-5.63V113.88a6.46,6.46,0,0,0-9.63-5.63L189,195.63A6.45,6.45,0,0,0,185.66,201.26Zm138.1,76.81a19.68,19.68,0,0,1-7,6.71l-93.06,50.65c-2.9,1.58-5.41,2-7.54,1.12s-3.18-2.71-3.18-5.64V220.81a15.56,15.56,0,0,1,3.18-8.8,20.25,20.25,0,0,1,7.54-6.76c2.9-1.45,5.39-1.72,7.5-.8s3.15,2.78,3.15,5.57v88.23a6.46,6.46,0,0,0,9.53,5.69l72.88-39.17c2.72-1.46,5.07-1.73,7-.83s3,2.72,3,5.43A15.75,15.75,0,0,1,323.76,278.07Z"/><path class="cls-1" d="M164.78.81l-55.3,30.71L24.4,78.76c-2.35,1.3-16,7.36-14.31,10.39s10.36,6.24,13.53,8l16.67,9.41,44.6,25.22,82.18,46.44,9.19,5.2a2,2,0,0,0,2,0L341.72,90a2,2,0,0,0-.13-3.46L169.21.68A3.75,3.75,0,0,0,164.78.81Zm81.8,111.86C227.06,129,205,140.14,179.83,144.78c-9.33,1.73-18.69,1.47-27.67-2.07-1.51-.6-3.63-2.18-3.68-3.37,0-1.51,1.39-3.63,2.8-4.52,4.28-2.71,8.27-6.33,13.89-6a8.56,8.56,0,0,1,2.44.32c7.43,2.79,14.87,2.08,22.16-.3,15.54-5.09,29.76-12.57,41.49-24.18a24.21,24.21,0,0,0,3.67-4.77,11.9,11.9,0,0,0-4.09-16.14A31.53,31.53,0,0,0,211,79.42c-11.32,1.11-21.31,5.92-31,11.42-3,1.73-5.95,3.67-9,5.34l-.1.06c-6.41,3.46-11.56,0-11.26-7.29.15-3.57.5-7.25.42-10.71.27,0-.24-9.53-.3-14.49,0-3.41-1.51-4.78-4.81-4a15.66,15.66,0,0,0-4.24,1.9c-15.19,9.31-30.33,18.7-45.53,28a88.35,88.35,0,0,1-10.43,5.56,11.78,11.78,0,0,1-13.13-3,3.09,3.09,0,0,1-.13-4.47A13.09,13.09,0,0,1,84.79,85q41.77-25.41,83.66-50.64a16.62,16.62,0,0,1,5.87-2,6.43,6.43,0,0,1,7.62,6.91c-.44,10.08-.94,20.17-1.38,30.25-.17,3.79,1.19,5,5,4.14a39.89,39.89,0,0,0,5.68-2.07C203.14,67,215.39,64,228.31,65c10.14.79,19.45,3.87,27.08,10.88,5.89,5.41,7.09,12,4.38,19.38C257.15,102.38,252.25,107.92,246.58,112.67Z"/></g></g></svg>