<svg xmlns="http://www.w3.org/2000/svg" xmlns:xlink="http://www.w3.org/1999/xlink" viewBox="0 0 1954.11 247.75"><defs><style>.cls-1{fill:none;stroke-miterlimit:10;stroke-width:60px;stroke:url(#linear-gradient);}.cls-2{fill:#fff;}</style><linearGradient id="linear-gradient" x1="-339.8" y1="101.86" x2="1509.38" y2="101.86" gradientTransform="matrix(0.89, 0.46, -0.46, 0.89, 504.4, -235.36)" gradientUnits="userSpaceOnUse"><stop offset="0" stop-color="#035f56"/><stop offset="0.65" stop-color="#00958e"/></linearGradient></defs><g id="Capa_2" data-name="Capa 2"><g id="Layer_1" data-name="Layer 1"><path class="cls-1" d="M0,30l228.19,0a93.69,93.69,0,0,1,94.92,91.24h0a93.68,93.68,0,0,0,92.76,91.24L1954,217.75"/><path class="cls-2" d="M1732.91,231.68l17.71-12.39s2.08-1.09,0-2.76l-17.71-12.85Z"/><path class="cls-2" d="M1752.74,231.68l17.71-12.39s2.08-1.09,0-2.76l-17.71-12.85Z"/><path class="cls-2" d="M1797.44,231.68l17.71-12.39s2.09-1.09,0-2.76l-17.71-12.85Z"/><path class="cls-2" d="M124,45.68l17.72-12.39s2.08-1.09,0-2.76L124,17.68Z"/><path class="cls-2" d="M167,45.68l17.72-12.39s2.08-1.09,0-2.76L167,17.68Z"/></g></g></svg>